<?xml version="1.0" encoding="iso-8859-1"?>
<!-- Generator: Adobe Illustrator 19.0.0, SVG Export Plug-In . SVG Version: 6.00 Build 0)  -->
<svg version="1.1" id="Capa_1" xmlns="http://www.w3.org/2000/svg" xmlns:xlink="http://www.w3.org/1999/xlink" x="0px" y="0px"
	 viewBox="0 0 512 512" style="enable-background:new 0 0 512 512;" xml:space="preserve">
<path style="fill:#D7D9CC;" d="M187.54,392.479c-50.131,0-90.767,40.636-90.767,90.757V504.5h50.776l7.715-6.234l7.285,6.234h39.282
	l81.401-112.021H187.54z"/>
<path style="fill:#F3F5E6;" d="M324.459,392.479h-41.227l-41.434,33.919l-39.967,32.472v45.63h147.62l7.5-5.734l7.5,5.734h50.776
	v-21.264C415.226,433.115,374.59,392.479,324.459,392.479z"/>
<polygon style="fill:#A8503C;" points="419.124,229.544 256,214.588 92.876,229.544 92.876,298.57 419.124,298.57 "/>
<circle style="fill:#E3B098;" cx="402.42" cy="298.99" r="34.31"/>
<ellipse style="fill:#FBC4AC;" cx="256" cy="288.15" rx="149.37" ry="138.87"/>
<path style="fill:#E3B098;" d="M136.626,288.153c0-71.988,58.921-131.18,134.374-138.174c-4.934-0.458-9.937-0.694-15-0.694
	c-73.898,0-135.253,49.891-147.243,115.417c-18.566,0.438-33.484,15.615-33.484,34.286c0,18.947,15.36,34.307,34.307,34.307
	c1.876,0,3.512-0.156,4.953-0.446c20.014,54.767,75.789,94.174,141.467,94.174c5.063,0,10.066-0.237,15-0.694
	C195.547,419.333,136.626,360.142,136.626,288.153z"/>
<path style="fill:#F3F5E6;" d="M372.728,7.5c-25.988,0-48.341,15.499-58.364,37.75C304.341,22.999,281.988,7.5,256,7.5
	s-48.341,15.499-58.364,37.75C187.613,22.999,165.259,7.5,139.271,7.5c-35.345,0-63.998,28.653-63.998,63.998
	c0,17.084,6.694,32.604,17.602,44.081l0.001,0.001v84.053L256,214.588l163.124-14.955V115.58l0.001-0.001
	c10.908-11.477,17.602-26.997,17.602-44.081C436.726,36.153,408.074,7.5,372.728,7.5z"/>
<path style="fill:#D7D9CC;" d="M122.876,199.633V115.58h-0.001c-10.908-11.477-17.602-26.998-17.602-44.081
	c0-30.182,20.899-55.467,49.011-62.216c-4.816-1.159-9.841-1.782-15.013-1.782c-35.345,0-63.998,28.653-63.998,63.998
	c0,17.083,6.694,32.604,17.602,44.081h0.001v84.054L256,214.588l15-1.375L122.876,199.633z"/>
<path style="fill:#A8503C;" d="M256,342.75c16.888,21.111,41.772,12.362,54.896,5.429c3.183-1.681,3.41-6.102,0.46-8.166
	c-7.523-5.264-11.903-16.79-18.117-22.582c-9.654-8.998-26.286-14.464-37.239-4.533c-10.953-9.931-27.585-4.465-37.239,4.533
	c-6.214,5.791-10.594,17.318-18.117,22.582c-2.949,2.064-2.723,6.484,0.46,8.166C214.228,355.112,239.111,363.86,256,342.75z"/>
<g>
	<path style="fill:#F98084;" d="M349.236,329.18h-21.804c-4.142,0-7.5-3.358-7.5-7.5s3.358-7.5,7.5-7.5h21.804
		c4.142,0,7.5,3.358,7.5,7.5C356.736,325.822,353.378,329.18,349.236,329.18z"/>
	<path style="fill:#F98084;" d="M184.568,329.18h-21.805c-4.142,0-7.5-3.358-7.5-7.5s3.358-7.5,7.5-7.5h21.805
		c4.142,0,7.5,3.358,7.5,7.5S188.711,329.18,184.568,329.18z"/>
</g>
<rect x="92.88" y="199.63" style="fill:#D7D9CC;" width="326.25" height="29.911"/>
<rect x="92.88" y="199.63" style="fill:#BDBFB4;" width="30" height="29.91"/>
<path d="M315.657,333.868c-3.06-2.141-5.903-6.493-8.652-10.701c-2.595-3.972-5.278-8.079-8.651-11.222
	c-7.961-7.419-18.505-11.849-28.207-11.849c-5.136,0-9.934,1.233-14.146,3.606c-4.211-2.373-9.009-3.606-14.146-3.606
	c-9.702,0-20.247,4.429-28.207,11.849c-3.373,3.144-6.056,7.25-8.651,11.222c-2.749,4.208-5.592,8.56-8.652,10.701
	c-3.559,2.49-5.522,6.556-5.252,10.875c0.267,4.292,2.701,8.055,6.51,10.067c7.518,3.971,19.043,8.706,31.258,8.706
	c0.001,0,0,0,0.002,0c10.326,0,19.571-3.419,27.138-9.968c7.568,6.548,16.814,9.968,27.141,9.968
	c12.214,0,23.741-4.734,31.259-8.706c3.809-2.012,6.242-5.775,6.51-10.067C321.179,340.424,319.215,336.358,315.657,333.868z
	 M283.141,348.517c-8.695,0-15.657-3.419-21.284-10.452c-1.423-1.779-3.578-2.815-5.856-2.815s-4.433,1.036-5.856,2.815
	c-5.626,7.033-12.588,10.452-21.282,10.452c-0.001,0-0.001,0-0.001,0c-7.421,0-14.811-2.498-20.549-5.139
	c3.724-3.56,6.62-7.992,9.242-12.006c2.202-3.37,4.281-6.553,6.32-8.454c5.099-4.751,12.156-7.822,17.98-7.822
	c3.636,0,6.615,1.099,9.108,3.358c2.858,2.592,7.217,2.592,10.075,0c2.493-2.26,5.472-3.358,9.108-3.358
	c5.824,0,12.882,3.07,17.98,7.822c2.039,1.9,4.119,5.083,6.32,8.454c2.623,4.014,5.518,8.446,9.242,12.006
	C297.95,346.019,290.561,348.517,283.141,348.517z"/>
<path d="M338.334,305.649c4.142,0,7.5-3.358,7.5-7.5V282.14c0-4.142-3.358-7.5-7.5-7.5s-7.5,3.358-7.5,7.5v16.009
	C330.834,302.291,334.192,305.649,338.334,305.649z"/>
<path d="M173.666,305.649c4.142,0,7.5-3.358,7.5-7.5V282.14c0-4.142-3.358-7.5-7.5-7.5s-7.5,3.358-7.5,7.5v16.009
	C166.166,302.291,169.524,305.649,173.666,305.649z"/>
<path d="M256,177.631c4.142,0,7.5-3.358,7.5-7.5V86.416c0-4.142-3.358-7.5-7.5-7.5s-7.5,3.358-7.5,7.5v83.715
	C248.5,174.273,251.858,177.631,256,177.631z"/>
<path d="M180.82,177.631c4.142,0,7.5-3.358,7.5-7.5V86.416c0-4.142-3.358-7.5-7.5-7.5s-7.5,3.358-7.5,7.5v83.715
	C173.32,174.273,176.678,177.631,180.82,177.631z"/>
<path d="M331.18,177.631c4.142,0,7.5-3.358,7.5-7.5V86.416c0-4.142-3.358-7.5-7.5-7.5s-7.5,3.358-7.5,7.5v83.715
	C323.68,174.273,327.037,177.631,331.18,177.631z"/>
<circle cx="236.63" cy="472" r="9.192"/>
<circle cx="313.43" cy="472" r="9.192"/>
<path d="M85.376,265.021c-10.626,7.627-17.603,20.077-17.603,33.967c0,23.052,18.755,41.807,41.807,41.807
	c0.015,0,0.03-0.001,0.045-0.001c8.341,20.122,21.313,38.108,37.697,52.813c-14.873,6.71-28.084,17.125-38.022,30.18
	c-13.102,17.211-20.027,37.77-20.027,59.452V504.5c0,4.142,3.358,7.5,7.5,7.5h318.453c4.142,0,7.5-3.358,7.5-7.5v-21.264
	c0-21.682-6.925-42.24-20.026-59.452c-9.938-13.055-23.149-23.469-38.022-30.18c16.384-14.705,29.356-32.69,37.697-52.813
	c0.015,0,0.03,0.001,0.045,0.001c23.052,0,41.807-18.754,41.807-41.807c0-13.89-6.977-26.34-17.603-33.967l0.001-146.539
	c11.373-13.027,17.602-29.593,17.602-46.983C444.226,32.074,412.153,0,372.728,0c-23.419,0-45.116,11.523-58.364,30.22
	C301.117,11.523,279.42,0,256,0c-23.419,0-45.116,11.523-58.364,30.22C184.389,11.523,162.692,0,139.272,0
	C99.848,0,67.774,32.074,67.774,71.498c0,17.39,6.229,33.957,17.603,46.984L85.376,265.021z M411.624,222.043H100.376v-14.91
	h311.248V222.043z M100.376,258.218v-21.174h8.585c-2.716,6.779-4.863,13.705-6.457,20.752c-0.041,0.007-0.081,0.017-0.122,0.024
	c-0.033,0.006-0.066,0.014-0.099,0.02C101.645,257.953,101.009,258.075,100.376,258.218z M104.212,325.254
	c-12.218-2.493-21.439-13.323-21.439-26.267c0-11.238,7.117-21.013,17.08-24.948c-0.114,1.115-0.215,2.233-0.302,3.354
	c-1.059,13.725-0.022,27.499,2.934,40.936C103.007,320.648,103.57,322.96,104.212,325.254z M104.274,483.236
	c0-35.545,23.018-67.446,56.41-78.827c16.795,12.008,35.841,20.623,56.112,25.485c2.299,0.553,4.612,1.068,6.934,1.52
	l-26.627,21.634c-1.753,1.424-2.771,3.563-2.771,5.821V497H162.55v-37.313c0-4.142-3.358-7.5-7.5-7.5s-7.5,3.358-7.5,7.5V497
	h-43.276L104.274,483.236L104.274,483.236z M351.315,404.409c33.393,11.38,56.412,43.282,56.412,78.827V497h-43.275v-37.313
	c0-4.142-3.358-7.5-7.5-7.5s-7.5,3.358-7.5,7.5V497h-140.12v-34.56l34.868-28.33c1.8,0.125,3.611,0.214,5.428,0.282
	c25.796,0.964,51.754-3.998,75.242-14.751C334.138,415.397,343.016,410.334,351.315,404.409z M321.126,404.839
	c-33.098,15.903-72.145,18.943-107.388,8.731c-50.986-14.762-89.697-55.502-97.969-105.405c-0.003-0.021-0.007-0.041-0.01-0.062
	c-2.236-13.732-3.052-28.304,0.357-41.939l0.007-0.032c0.02-0.089,0.038-0.179,0.054-0.269c1.826-9.881,4.893-19.555,9.126-28.819
	h261.393c4.234,9.265,7.301,18.938,9.127,28.819c0.017,0.09,0.035,0.179,0.055,0.269l0.006,0.029
	c2.512,13.806,2.646,28.101,0.357,41.947c-0.003,0.018-0.006,0.036-0.009,0.054C389.25,350.292,360.57,385.888,321.126,404.839z
	 M407.788,325.254c4.346-15.514,5.9-31.791,4.661-47.85c-0.087-1.124-0.189-2.246-0.303-3.365
	c9.963,3.936,17.079,13.709,17.079,24.948C429.226,311.931,420.006,322.761,407.788,325.254z M409.616,257.819
	c-0.041-0.007-0.08-0.017-0.121-0.024c-1.594-7.047-3.741-13.973-6.457-20.752h8.585v21.174c-0.625-0.141-1.256-0.262-1.888-0.375
	C409.696,257.836,409.656,257.827,409.616,257.819z M82.774,71.498C82.774,40.345,108.119,15,139.272,15
	c22.18,0,42.405,13.083,51.525,33.329c2.605,5.783,11.077,5.771,13.677,0.001C213.595,28.083,233.82,15,256,15
	s42.405,13.083,51.525,33.329c2.607,5.788,11.073,5.781,13.677,0.002C330.323,28.083,350.548,15,372.728,15
	c31.153,0,56.498,25.345,56.498,56.498c0,14.552-5.519,28.372-15.539,38.915c-1.325,1.394-2.063,3.244-2.063,5.167v76.553H100.376
	l-0.001-76.554c0-1.923-0.739-3.773-2.063-5.167C88.292,99.87,82.774,86.049,82.774,71.498z"/>
<g>
</g>
<g>
</g>
<g>
</g>
<g>
</g>
<g>
</g>
<g>
</g>
<g>
</g>
<g>
</g>
<g>
</g>
<g>
</g>
<g>
</g>
<g>
</g>
<g>
</g>
<g>
</g>
<g>
</g>
</svg>
